<svg width="792" height="792" xmlns="http://www.w3.org/2000/svg" xmlns:xlink="http://www.w3.org/1999/xlink" xml:space="preserve" overflow="hidden"><defs><clipPath id="clip0"><rect x="1417" y="592" width="792" height="792"/></clipPath><clipPath id="clip1"><rect x="1586" y="722" width="458" height="459"/></clipPath><clipPath id="clip2"><rect x="1586" y="722" width="458" height="459"/></clipPath><clipPath id="clip3"><rect x="1586" y="722" width="458" height="459"/></clipPath></defs><g clip-path="url(#clip0)" transform="translate(-1417 -592)"><rect x="1508" y="734" width="603" height="398" fill="#FFFFFF"/><path d="M2093.5 1120 1532.5 1120 1532.5 757 2093.5 757 2093.5 1120ZM2110 707.5 1516 707.5C1497.85 707.5 1483 722.35 1483 740.5L1483 1136.5C1483 1154.65 1497.85 1169.5 1516 1169.5L1747 1169.5 1747 1219 1664.5 1219 1664.5 1268.5 1961.5 1268.5 1961.5 1219 1879 1219 1879 1169.5 2110 1169.5C2128.15 1169.5 2143 1154.65 2143 1136.5L2143 740.5C2143 722.35 2128.15 707.5 2110 707.5Z"/><g clip-path="url(#clip1)"><g clip-path="url(#clip2)"><g clip-path="url(#clip3)"><path d="M229.833 380.833C250.706 364.354 270.622 346.696 289.481 327.945 316.82 301.899 340.995 272.723 361.506 241.02 380.548 210.363 398.733 170.566 386.213 134.196 376.073 104.11 347.939 78.5469 315.616 75.4526 274.771 71.4063 245.209 105.967 228.5 139.052 213.219 108.776 187.941 77.5472 151.429 75.2622 119.01 73.2628 88.8294 96.0653 74.8814 124.39 57.4107 159.95 71.6443 199.938 90.0195 231.88 109.061 265.203 134.387 294.48 161.14 321.566 182.23 343.143 204.733 363.293 228.5 381.881ZM152.333 218.979 166.615 176.135 175.088 150.667C177.278 144.05 180.658 135.196 189.798 139.004 195.32 141.337 195.653 147.049 196.605 152.048L200.556 173.136 211.981 234.07 219.551 274.533 247.161 201.509 253.254 185.418C255.016 180.658 256.825 175.897 262.775 175.374 270.344 174.612 272.582 181.086 274.248 186.799L280.103 206.888 291.718 246.828 303.191 234.213C306.861 229.411 310.99 224.978 315.521 220.979 320.281 217.646 329.088 219.17 334.562 219.17L352.271 219.17C348.748 225.501 344.845 231.88 340.608 238.211L325.137 238.211C314.997 249.398 305.286 261.299 294.527 271.915 291.152 275.948 285.148 276.481 281.116 273.107 280.323 272.443 279.643 271.655 279.103 270.773 278.069 268.725 277.316 266.548 276.866 264.298L268.916 237.116 262.442 214.838C250.303 246.875 238.64 278.961 226.12 310.855 225.42 313.454 223.901 315.758 221.788 317.425 217.454 320.402 211.527 319.302 208.55 314.968 207.789 313.861 207.271 312.605 207.031 311.284 205.936 306.904 205.364 302.334 204.508 297.955L192.464 233.689 183.467 185.656 170.042 225.977C167.995 231.975 166.377 237.831 158.665 238.211 151.667 238.545 144.622 238.211 137.671 238.211L116.249 238.211C112.06 231.88 108.109 225.501 104.586 219.17Z" fill="#C00000" transform="matrix(1.00219 0 0 1 1586 723)"/></g></g></g></g></svg>